<svg width="56" height="56" viewBox="0 0 56 56" fill="none" xmlns="http://www.w3.org/2000/svg">
<g filter="url(#filter0_d_1713_6285)">
<rect x="4" width="48" height="48" rx="8" fill="#00B4FF"/>
<g clip-path="url(#clip0_1713_6285)">
<path d="M41 10C41.6 10 42 10.4 42 11V37C42 37.6 41.6 38 41 38H15C14.4 38 14 37.6 14 37V11C14 10.4 14.4 10 15 10H41ZM41 8H15C13.3 8 12 9.3 12 11V37C12 38.7 13.3 40 15 40H41C42.7 40 44 38.7 44 37V11C44 9.3 42.7 8 41 8Z" fill="white"/>
<path d="M28 14C33.5 14 38 18.5 38 24C38 29.5 33.5 34 28 34C22.5 34 18 29.5 18 24C18 18.5 22.5 14 28 14ZM28 12C21.4 12 16 17.4 16 24C16 30.6 21.4 36 28 36C34.6 36 40 30.6 40 24C40 17.4 34.6 12 28 12Z" fill="white"/>
<path d="M24.5 17.5H31.5" stroke="white" stroke-miterlimit="10" stroke-linecap="round"/>
<path d="M24.5 30.5H31.5" stroke="white" stroke-miterlimit="10" stroke-linecap="round"/>
<path d="M23.5 19.5H33.5" stroke="white" stroke-miterlimit="10" stroke-linecap="round"/>
<path d="M28.5002 22.9998C28.8002 22.9998 29.0002 23.1998 29.0002 23.4998V25.4998C29.0002 25.7998 28.8002 25.9998 28.5002 25.9998H27.5002C27.2002 25.9998 27.0002 25.7998 27.0002 25.4998V23.4998C27.0002 23.1998 27.2002 22.9998 27.5002 22.9998H28.5002ZM28.5002 22.2998H27.5002C26.8002 22.2998 26.2002 22.8998 26.2002 23.5998V25.5998C26.2002 26.2998 26.8002 26.8998 27.5002 26.8998H28.5002C29.2002 26.8998 29.8002 26.2998 29.8002 25.5998V23.5998C29.8002 22.7998 29.2002 22.2998 28.5002 22.2998Z" fill="white"/>
<path d="M22.5002 22.9998C22.8002 22.9998 23.0002 23.1998 23.0002 23.4998V25.4998C23.0002 25.7998 22.8002 25.9998 22.5002 25.9998H21.5002C21.2002 25.9998 21.0002 25.7998 21.0002 25.4998V23.4998C21.0002 23.1998 21.2002 22.9998 21.5002 22.9998H22.5002ZM22.5002 22.2998H21.5002C20.8002 22.2998 20.2002 22.8998 20.2002 23.5998V25.5998C20.2002 26.2998 20.8002 26.8998 21.5002 26.8998H22.5002C23.2002 26.8998 23.8002 26.2998 23.8002 25.5998V23.5998C23.8002 22.7998 23.2002 22.2998 22.5002 22.2998Z" fill="white"/>
<path d="M34.5002 22.9998C34.8002 22.9998 35.0002 23.1998 35.0002 23.4998V25.4998C35.0002 25.7998 34.8002 25.9998 34.5002 25.9998H33.5002C33.2002 25.9998 33.0002 25.7998 33.0002 25.4998V23.4998C33.0002 23.1998 33.2002 22.9998 33.5002 22.9998H34.5002ZM34.5002 22.2998H33.5002C32.8002 22.2998 32.2002 22.8998 32.2002 23.5998V25.5998C32.2002 26.2998 32.8002 26.8998 33.5002 26.8998H34.5002C35.2002 26.8998 35.8002 26.2998 35.8002 25.5998V23.5998C35.8002 22.7998 35.2002 22.2998 34.5002 22.2998Z" fill="white"/>
</g>
<rect x="4" width="48" height="48" rx="8" fill="#FF7313"/>
<path d="M24 25.333C22.9391 25.333 21.9217 24.9116 21.1716 24.1614C20.4214 23.4113 20 22.3939 20 21.333C20 20.2721 20.4214 19.2547 21.1716 18.5046C21.9217 17.7544 22.9391 17.333 24 17.333C25.0609 17.333 26.0783 17.7544 26.8284 18.5046C27.5786 19.2547 28 20.2721 28 21.333C28 22.3939 27.5786 23.4113 26.8284 24.1614C26.0783 24.9116 25.0609 25.333 24 25.333Z" stroke="white" stroke-width="2" stroke-linecap="round"/>
<path d="M16 35.9997V34.6663C16 33.2519 16.5619 31.8953 17.5621 30.8951C18.5623 29.8949 19.9188 29.333 21.3333 29.333H26.6667C28.0812 29.333 29.4377 29.8949 30.4379 30.8951C31.4381 31.8953 32 33.2519 32 34.6663V35.9997" stroke="white" stroke-width="2" stroke-linecap="round"/>
<path d="M36 12V20" stroke="white" stroke-width="2" stroke-linecap="round"/>
<path d="M32 16H40" stroke="white" stroke-width="2" stroke-linecap="round"/>
</g>
<defs>
<filter id="filter0_d_1713_6285" x="0" y="0" width="56" height="56" filterUnits="userSpaceOnUse" color-interpolation-filters="sRGB">
<feFlood flood-opacity="0" result="BackgroundImageFix"/>
<feColorMatrix in="SourceAlpha" type="matrix" values="0 0 0 0 0 0 0 0 0 0 0 0 0 0 0 0 0 0 127 0" result="hardAlpha"/>
<feOffset dy="4"/>
<feGaussianBlur stdDeviation="2"/>
<feComposite in2="hardAlpha" operator="out"/>
<feColorMatrix type="matrix" values="0 0 0 0 0 0 0 0 0 0 0 0 0 0 0 0 0 0 0.25 0"/>
<feBlend mode="normal" in2="BackgroundImageFix" result="effect1_dropShadow_1713_6285"/>
<feBlend mode="normal" in="SourceGraphic" in2="effect1_dropShadow_1713_6285" result="shape"/>
</filter>
<clipPath id="clip0_1713_6285">
<rect width="32" height="32" fill="white" transform="translate(12 8)"/>
</clipPath>
</defs>
</svg>
