<svg width="48" height="48" viewBox="0 0 48 48" fill="none" xmlns="http://www.w3.org/2000/svg">
<rect width="48" height="48" rx="8" fill="#004B74"/>
<g clip-path="url(#clip0_1713_6316)">
<path d="M37 10C37.6 10 38 10.4 38 11V37C38 37.6 37.6 38 37 38H11C10.4 38 10 37.6 10 37V11C10 10.4 10.4 10 11 10H37ZM37 8H11C9.3 8 8 9.3 8 11V37C8 38.7 9.3 40 11 40H37C38.7 40 40 38.7 40 37V11C40 9.3 38.7 8 37 8Z" fill="white"/>
<path d="M24 14C29.5 14 34 18.5 34 24C34 29.5 29.5 34 24 34C18.5 34 14 29.5 14 24C14 18.5 18.5 14 24 14ZM24 12C17.4 12 12 17.4 12 24C12 30.6 17.4 36 24 36C30.6 36 36 30.6 36 24C36 17.4 30.6 12 24 12Z" fill="white"/>
<path d="M20.5 17.5H27.5" stroke="white" stroke-miterlimit="10" stroke-linecap="round"/>
<path d="M20.5 30.5H27.5" stroke="white" stroke-miterlimit="10" stroke-linecap="round"/>
<path d="M19.5 19.5H29.5" stroke="white" stroke-miterlimit="10" stroke-linecap="round"/>
<path d="M24.5002 22.9998C24.8002 22.9998 25.0002 23.1998 25.0002 23.4998V25.4998C25.0002 25.7998 24.8002 25.9998 24.5002 25.9998H23.5002C23.2002 25.9998 23.0002 25.7998 23.0002 25.4998V23.4998C23.0002 23.1998 23.2002 22.9998 23.5002 22.9998H24.5002ZM24.5002 22.2998H23.5002C22.8002 22.2998 22.2002 22.8998 22.2002 23.5998V25.5998C22.2002 26.2998 22.8002 26.8998 23.5002 26.8998H24.5002C25.2002 26.8998 25.8002 26.2998 25.8002 25.5998V23.5998C25.8002 22.7998 25.2002 22.2998 24.5002 22.2998Z" fill="white"/>
<path d="M18.5002 22.9998C18.8002 22.9998 19.0002 23.1998 19.0002 23.4998V25.4998C19.0002 25.7998 18.8002 25.9998 18.5002 25.9998H17.5002C17.2002 25.9998 17.0002 25.7998 17.0002 25.4998V23.4998C17.0002 23.1998 17.2002 22.9998 17.5002 22.9998H18.5002ZM18.5002 22.2998H17.5002C16.8002 22.2998 16.2002 22.8998 16.2002 23.5998V25.5998C16.2002 26.2998 16.8002 26.8998 17.5002 26.8998H18.5002C19.2002 26.8998 19.8002 26.2998 19.8002 25.5998V23.5998C19.8002 22.7998 19.2002 22.2998 18.5002 22.2998Z" fill="white"/>
<path d="M30.5002 22.9998C30.8002 22.9998 31.0002 23.1998 31.0002 23.4998V25.4998C31.0002 25.7998 30.8002 25.9998 30.5002 25.9998H29.5002C29.2002 25.9998 29.0002 25.7998 29.0002 25.4998V23.4998C29.0002 23.1998 29.2002 22.9998 29.5002 22.9998H30.5002ZM30.5002 22.2998H29.5002C28.8002 22.2998 28.2002 22.8998 28.2002 23.5998V25.5998C28.2002 26.2998 28.8002 26.8998 29.5002 26.8998H30.5002C31.2002 26.8998 31.8002 26.2998 31.8002 25.5998V23.5998C31.8002 22.7998 31.2002 22.2998 30.5002 22.2998Z" fill="white"/>
</g>
<defs>
<clipPath id="clip0_1713_6316">
<rect width="32" height="32" fill="white" transform="translate(8 8)"/>
</clipPath>
</defs>
</svg>
