<svg width="160" height="160" viewBox="0 0 160 160" fill="none" xmlns="http://www.w3.org/2000/svg">
<g filter="url(#filter0_d_905_12746)">
<circle cx="80" cy="74" r="48" fill="white"/>
</g>
<g clip-path="url(#clip0_905_12746)">
<path d="M70.5 51C73.1701 51 75.7801 51.7918 78.0002 53.2752C80.2203 54.7586 81.9506 56.867 82.9724 59.3338C83.9942 61.8006 84.2615 64.515 83.7406 67.1337C83.2197 69.7525 81.934 72.1579 80.0459 74.0459C78.1579 75.934 75.7525 77.2197 73.1337 77.7406C70.515 78.2615 67.8006 77.9942 65.3338 76.9724C62.867 75.9506 60.7586 74.2203 59.2752 72.0002C57.7918 69.7801 57 67.17 57 64.5C57.0053 60.9212 58.4293 57.4905 60.9599 54.9599C63.4905 52.4293 66.9212 51.0053 70.5 51ZM70.5 48C67.2366 48 64.0465 48.9677 61.3331 50.7808C58.6197 52.5938 56.5048 55.1707 55.256 58.1857C54.0071 61.2007 53.6804 64.5183 54.3171 67.719C54.9537 70.9197 56.5252 73.8597 58.8327 76.1673C61.1403 78.4748 64.0803 80.0463 67.281 80.683C70.4817 81.3196 73.7993 80.9929 76.8143 79.744C79.8293 78.4952 82.4062 76.3803 84.2193 73.6669C86.0323 70.9535 87 67.7634 87 64.5C87 60.1239 85.2616 55.9271 82.1673 52.8327C79.0729 49.7384 74.8761 48 70.5 48V48Z" fill="#FF7313"/>
<path d="M68.0898 66.49H63.5398L62.6698 68.59H60.3398L64.7098 58.79H66.9998L71.3798 68.59H68.9998L68.0898 66.49ZM67.3698 64.77L65.8198 61L64.2598 64.76L67.3698 64.77Z" fill="black"/>
<path d="M79.0995 64.5402H76.6695V66.9202H74.8595V64.5402H72.4395V62.8302H74.8595V60.4502H76.6695V62.8302H79.0995V64.5402Z" fill="black"/>
<path d="M93.5 78C95.3789 78 97.2157 78.5572 98.7779 79.601C100.34 80.6449 101.558 82.1286 102.277 83.8645C102.996 85.6004 103.184 87.5105 102.817 89.3534C102.451 91.1962 101.546 92.8889 100.218 94.2175C98.8889 95.5461 97.1962 96.4509 95.3534 96.8175C93.5105 97.184 91.6004 96.9959 89.8645 96.2769C88.1286 95.5578 86.6449 94.3402 85.601 92.7779C84.5572 91.2156 84 89.3789 84 87.5C84.0027 84.9813 85.0044 82.5664 86.7854 80.7854C88.5664 79.0044 90.9813 78.0026 93.5 78ZM93.5 75C91.0277 75 88.611 75.7331 86.5554 77.1066C84.4998 78.4801 82.8976 80.4324 81.9515 82.7165C81.0054 85.0005 80.7579 87.5139 81.2402 89.9386C81.7225 92.3634 82.913 94.5907 84.6612 96.3388C86.4093 98.087 88.6366 99.2775 91.0614 99.7598C93.4861 100.242 95.9995 99.9946 98.2835 99.0485C100.568 98.1024 102.52 96.5002 103.893 94.4446C105.267 92.389 106 89.9723 106 87.5C106 84.1848 104.683 81.0054 102.339 78.6612C99.9946 76.317 96.8152 75 93.5 75Z" fill="#FF7313"/>
<path d="M95.2598 89.2704H91.1898L90.4198 91.1504H88.3398L92.2398 82.4004H94.2398L98.1598 91.1504H95.9998L95.2598 89.2704ZM94.6198 87.7404L93.2298 84.3904L91.8398 87.7404H94.6198Z" fill="black"/>
</g>
<defs>
<filter id="filter0_d_905_12746" x="0" y="0" width="160" height="160" filterUnits="userSpaceOnUse" color-interpolation-filters="sRGB">
<feFlood flood-opacity="0" result="BackgroundImageFix"/>
<feColorMatrix in="SourceAlpha" type="matrix" values="0 0 0 0 0 0 0 0 0 0 0 0 0 0 0 0 0 0 127 0" result="hardAlpha"/>
<feOffset dy="6"/>
<feGaussianBlur stdDeviation="16"/>
<feComposite in2="hardAlpha" operator="out"/>
<feColorMatrix type="matrix" values="0 0 0 0 0 0 0 0 0 0 0 0 0 0 0 0 0 0 0.08 0"/>
<feBlend mode="normal" in2="BackgroundImageFix" result="effect1_dropShadow_905_12746"/>
<feBlend mode="normal" in="SourceGraphic" in2="effect1_dropShadow_905_12746" result="shape"/>
</filter>
<clipPath id="clip0_905_12746">
<rect width="52" height="52" fill="white" transform="translate(54 48)"/>
</clipPath>
</defs>
</svg>
