<svg width="345" height="334" viewBox="0 0 345 334" fill="none" xmlns="http://www.w3.org/2000/svg">
<path d="M368.529 273.784L221.841 20.0721C214.604 7.45536 201.509 0 187.036 0C172.447 0 159.467 7.45536 152.23 20.0721L5.42757 273.784C-1.80919 286.4 -1.80919 301.311 5.42757 313.928C12.6643 326.545 25.7594 334 40.233 334H333.724C348.312 334 361.293 326.545 368.529 313.928C375.766 301.311 375.881 286.4 368.529 273.784ZM187.036 280.551C172.447 280.551 165.096 273.21 165.096 258.644C165.096 244.077 172.447 236.736 187.036 236.736C201.624 236.736 208.976 244.077 208.976 258.644C208.976 273.21 201.739 280.551 187.036 280.551ZM211.733 129.609L196.455 218.499H177.731L162.454 129.609C162.224 128.117 162.109 126.626 162.109 125.135C162.109 112.404 170.495 105.981 187.151 105.981C203.807 105.981 212.192 112.289 212.192 125.021C212.077 126.741 211.962 128.347 211.733 129.609Z" fill="#FEDFA2"/>
</svg>
