<svg width="160" height="160" viewBox="0 0 160 160" fill="none" xmlns="http://www.w3.org/2000/svg">
<g filter="url(#filter0_d_905_12729)">
<circle cx="80" cy="74" r="48" fill="white"/>
</g>
<g clip-path="url(#clip0_905_12729)">
<path d="M76.1897 95.5195V96.1495C76.1772 96.6499 76.2634 97.1478 76.4433 97.6148C76.6233 98.0818 76.8934 98.5088 77.2384 98.8714C77.5834 99.234 77.9964 99.5252 78.4539 99.7282C78.9113 99.9312 79.4043 100.042 79.9047 100.055C80.405 100.067 80.9029 99.9808 81.3699 99.8009C81.8369 99.6209 82.2639 99.3508 82.6266 99.0058C83.3589 98.3091 83.7845 97.35 83.8097 96.3395V95.5195H76.1897Z" fill="black"/>
<path d="M81.0896 96.0696H78.3496C76.9121 96.0696 75.5335 95.4986 74.5171 94.4822C73.5006 93.4657 72.9296 92.0871 72.9296 90.6496V85.6496C72.9296 79.5396 67.9996 73.8696 67.9996 73.8696C65.9026 70.7435 65.0075 66.9642 65.4796 63.2296C65.8462 59.9199 67.311 56.8284 69.6402 54.4485C71.9693 52.0686 75.0285 50.5375 78.3296 50.0996C87.1696 49.0996 94.6396 56.2296 94.6396 65.1796C94.6515 68.2787 93.7317 71.3098 91.9996 73.8796C91.9996 73.8796 87.0696 79.5496 87.0696 85.6596V90.6596C87.0696 92.0971 86.4985 93.4757 85.4821 94.4922C84.4656 95.5086 83.087 96.0796 81.6496 96.0796H78.9096" stroke="black" stroke-width="3" stroke-miterlimit="10"/>
<path d="M87.6096 89.54H72.3896" stroke="black" stroke-width="3" stroke-miterlimit="10"/>
<path d="M87.6096 84.1094H72.3896" stroke="black" stroke-width="3" stroke-miterlimit="10"/>
<path d="M94.1392 72.1494H66.9492" stroke="black" stroke-width="3" stroke-miterlimit="10"/>
<path d="M87.83 71.9199C87.83 71.9199 82.71 77.5999 82.71 83.7099" stroke="black" stroke-width="3" stroke-miterlimit="10"/>
<path d="M72.75 71.9199C72.75 71.9199 77.87 77.5999 77.87 83.7099" stroke="black" stroke-width="3" stroke-miterlimit="10"/>
<path d="M99 68H84C80.134 68 77 71.134 77 75C77 78.866 80.134 82 84 82H99C102.866 82 106 78.866 106 75C106 71.134 102.866 68 99 68Z" fill="#FF7313"/>
<path d="M80.9092 71.5498H82.9092V76.9998H86.2492V78.5698H80.9092V71.5498Z" fill="white"/>
<path d="M93.1298 76.9993V78.5293H87.5098V71.5293H92.9998V73.0593H89.4698V74.2393H92.5798V75.7193H89.4698V76.9993H93.1298Z" fill="white"/>
<path d="M94.7295 71.5493H97.9995C98.6901 71.5396 99.3739 71.6867 99.9995 71.9793C100.569 72.2424 101.049 72.6665 101.379 73.1993C101.764 73.7416 101.979 74.3851 101.999 75.0493C102.015 75.6999 101.845 76.3416 101.509 76.8993C101.173 77.4269 100.694 77.8495 100.129 78.1193C99.5024 78.4074 98.8196 78.5542 98.1295 78.5493H94.7295V71.5493ZM97.9995 76.9993C98.5281 77.0265 99.0459 76.8431 99.4395 76.4893C99.7937 76.1051 99.9903 75.6018 99.9903 75.0793C99.9903 74.5568 99.7937 74.0534 99.4395 73.6693C99.247 73.4887 99.0206 73.348 98.7735 73.2553C98.5263 73.1626 98.2633 73.1198 97.9995 73.1293H96.7095V76.9993H97.9995Z" fill="white"/>
</g>
<defs>
<filter id="filter0_d_905_12729" x="0" y="0" width="160" height="160" filterUnits="userSpaceOnUse" color-interpolation-filters="sRGB">
<feFlood flood-opacity="0" result="BackgroundImageFix"/>
<feColorMatrix in="SourceAlpha" type="matrix" values="0 0 0 0 0 0 0 0 0 0 0 0 0 0 0 0 0 0 127 0" result="hardAlpha"/>
<feOffset dy="6"/>
<feGaussianBlur stdDeviation="16"/>
<feComposite in2="hardAlpha" operator="out"/>
<feColorMatrix type="matrix" values="0 0 0 0 0 0 0 0 0 0 0 0 0 0 0 0 0 0 0.08 0"/>
<feBlend mode="normal" in2="BackgroundImageFix" result="effect1_dropShadow_905_12729"/>
<feBlend mode="normal" in="SourceGraphic" in2="effect1_dropShadow_905_12729" result="shape"/>
</filter>
<clipPath id="clip0_905_12729">
<rect width="52" height="52" fill="white" transform="translate(54 48)"/>
</clipPath>
</defs>
</svg>
