<svg width="144" height="144" viewBox="0 0 144 144" fill="none" xmlns="http://www.w3.org/2000/svg">
<g filter="url(#filter0_d_826_7169)">
<circle cx="72" cy="66" r="40" fill="white"/>
</g>
<g clip-path="url(#clip0_826_7169)">
<path d="M86 44H51V82H86V44Z" fill="white"/>
<path d="M58.5 57.5H77.5" stroke="black" stroke-width="3" stroke-miterlimit="10" stroke-linecap="round"/>
<path d="M58.5 50.5H77.5" stroke="black" stroke-width="3" stroke-miterlimit="10" stroke-linecap="round"/>
<path d="M58.5 64.5H77.5" stroke="black" stroke-width="3" stroke-miterlimit="10" stroke-linecap="round"/>
<path d="M58.5 71.5H77.5" stroke="black" stroke-width="3" stroke-miterlimit="10" stroke-linecap="round"/>
<path d="M52 42C50.3 42 49 43.3 49 45V85.1C49 85.9 49.7 86.6 50.5 86.6C51 86.6 51.4 86.4 51.6 86.1L54.5 82.7L58.7 86.6L63.1 82.6L67.5 86.6L71.9 82.6L76.3 86.6L80.7 82.6L84.5 86.1C84.5 86.1 84.5 86.1 84.6 86.2L84.7 86.3C84.9 86.5 85.2 86.6 85.6 86.6C86.4 86.6 87.1 85.9 87.1 85.1V45C87.1 43.3 85.8 42 84.1 42H52ZM76.3 82.5L71.9 78.5L67.5 82.5L63.1 78.5L58.7 82.5L54.2 78.4L52 81V80V75V46C52 45.4 52.4 45 53 45H83C83.6 45 84 45.4 84 46V75V80V81.6L80.6 78.5L76.3 82.5Z" fill="black"/>
<path d="M81.6001 89.5C87.6752 89.5 92.6001 84.5751 92.6001 78.5C92.6001 72.4249 87.6752 67.5 81.6001 67.5C75.525 67.5 70.6001 72.4249 70.6001 78.5C70.6001 84.5751 75.525 89.5 81.6001 89.5Z" fill="white" stroke="#FF7313" stroke-width="3" stroke-miterlimit="10" stroke-linecap="round"/>
<path d="M76.6001 78.1002L80.3001 81.8002L86.9001 75.2002" stroke="#FF7313" stroke-width="3" stroke-miterlimit="10" stroke-linecap="round" stroke-linejoin="round"/>
</g>
<defs>
<filter id="filter0_d_826_7169" x="0" y="0" width="144" height="144" filterUnits="userSpaceOnUse" color-interpolation-filters="sRGB">
<feFlood flood-opacity="0" result="BackgroundImageFix"/>
<feColorMatrix in="SourceAlpha" type="matrix" values="0 0 0 0 0 0 0 0 0 0 0 0 0 0 0 0 0 0 127 0" result="hardAlpha"/>
<feOffset dy="6"/>
<feGaussianBlur stdDeviation="16"/>
<feComposite in2="hardAlpha" operator="out"/>
<feColorMatrix type="matrix" values="0 0 0 0 0 0 0 0 0 0 0 0 0 0 0 0 0 0 0.08 0"/>
<feBlend mode="normal" in2="BackgroundImageFix" result="effect1_dropShadow_826_7169"/>
<feBlend mode="normal" in="SourceGraphic" in2="effect1_dropShadow_826_7169" result="shape"/>
</filter>
<clipPath id="clip0_826_7169">
<rect width="45.1" height="49" fill="white" transform="translate(49 42)"/>
</clipPath>
</defs>
</svg>
