<svg width="144" height="144" viewBox="0 0 144 144" fill="none" xmlns="http://www.w3.org/2000/svg">
<g filter="url(#filter0_d_826_7095)">
<circle cx="72" cy="66" r="40" fill="white"/>
</g>
<g clip-path="url(#clip0_826_7095)">
<path d="M90 46H55V84H90V46Z" fill="white"/>
<path d="M62.5 59.5H81.5" stroke="black" stroke-width="3" stroke-miterlimit="10" stroke-linecap="round"/>
<path d="M62.5 52.5H81.5" stroke="black" stroke-width="3" stroke-miterlimit="10" stroke-linecap="round"/>
<path d="M62.5 66.5H81.5" stroke="black" stroke-width="3" stroke-miterlimit="10" stroke-linecap="round"/>
<path d="M62.5 73.5H81.5" stroke="black" stroke-width="3" stroke-miterlimit="10" stroke-linecap="round"/>
<path d="M56 44C54.3 44 53 45.3 53 47V87.1C53 87.9 53.7 88.6 54.5 88.6C55 88.6 55.4 88.4 55.6 88.1L58.5 84.7L62.7 88.6L67.1 84.6L71.5 88.6L75.9 84.6L80.3 88.6L84.7 84.6L88.5 88.1C88.5 88.1 88.5 88.1 88.6 88.2L88.7 88.3C88.9 88.5 89.2 88.6 89.6 88.6C90.4 88.6 91.1 87.9 91.1 87.1V47C91.1 45.3 89.8 44 88.1 44H56ZM80.3 84.5L75.9 80.5L71.5 84.5L67.1 80.5L62.7 84.5L58.2 80.4L56 83V82V77V48C56 47.4 56.4 47 57 47H87C87.6 47 88 47.4 88 48V77V82V83.6L84.6 80.5L80.3 84.5Z" fill="black"/>
<path d="M85.4999 91.5004C82.5999 91.5004 79.7999 90.4004 77.6999 88.4004C75.3999 86.3004 74.0999 83.5004 73.9999 80.4004C73.8999 77.3004 74.9999 74.4004 77.0999 72.1004C79.2999 69.8004 82.2999 68.4004 85.4999 68.4004C88.3999 68.4004 91.1999 69.5004 93.2999 71.5004C95.5999 73.6004 96.8999 76.4004 96.9999 79.5004C97.0999 82.6004 95.9999 85.5004 93.8999 87.8004C91.7999 90.2004 88.6999 91.5004 85.4999 91.5004Z" fill="white"/>
<path d="M85.4998 70C87.9998 70 90.3998 70.9 92.2998 72.7C96.2998 76.5 96.5998 82.8 92.7998 86.8C90.8998 88.9 88.2998 90 85.4998 90C82.9998 90 80.5998 89.1 78.6998 87.3C74.6998 83.5 74.3998 77.2 78.1998 73.2C80.0998 71.1 82.6998 70 85.4998 70ZM85.4998 67C81.9998 67 78.4998 68.4 75.9998 71.2C71.0998 76.5 71.3998 84.7 76.6998 89.6C79.1998 91.9 82.3998 93.1 85.4998 93.1C88.9998 93.1 92.4998 91.7 94.9998 88.9C99.8998 83.6 99.5998 75.4 94.2998 70.5C91.7998 68.2 88.6998 67 85.4998 67Z" fill="#FF7313"/>
<path d="M84.8 86.5996C84.7 86.4996 84.7 86.3996 84.7 86.2996V85.2996C84.1 85.1996 83.6 84.9996 83.2 84.6996C82.8 84.3996 82.5 84.0996 82.3 83.5996C82.1 83.0996 82 82.6996 82 82.2996C82 82.1996 82 82.0996 82.1 82.0996C82.2 81.9996 82.2 81.9996 82.3 81.9996H83.9C84 81.9996 84.1 81.9996 84.1 82.0996C84.2 82.0996 84.2 82.1996 84.3 82.2996C84.5 82.7996 85 83.0996 85.7 83.0996C86.1 83.0996 86.5 82.9996 86.7 82.8996C86.9 82.6996 87.1 82.4996 87.1 82.1996C87.1 81.9996 87 81.7996 86.9 81.6996C86.8 81.5996 86.6 81.3996 86.3 81.2996C86 81.1996 85.7 81.0996 85.2 80.8996C84.2 80.6996 83.5 80.2996 83 79.7996C82.5 79.2996 82.3 78.5996 82.3 77.6996C82.3 76.8996 82.5 76.1996 83 75.5996C83.5 74.9996 84.1 74.6996 84.9 74.4996V73.4996C84.9 73.3996 84.9 73.2996 85 73.1996C85.1 73.0996 85.1 73.0996 85.2 73.0996H86.2C86.3 73.0996 86.4 73.0996 86.4 73.1996C86.5 73.2996 86.5 73.3996 86.5 73.4996V74.5996C87 74.6996 87.5 74.8996 87.9 75.1996C88.3 75.4996 88.6 75.8996 88.8 76.2996C89 76.6996 89.1 77.0996 89.1 77.3996C89.1 77.4996 89.1 77.5996 89 77.5996C89 77.6996 88.9 77.6996 88.8 77.6996H87C86.8 77.6996 86.7 77.5996 86.6 77.3996C86.6 77.1996 86.4 76.9996 86.2 76.8996C86 76.7996 85.7 76.6996 85.5 76.6996C85.2 76.6996 84.9 76.7996 84.7 76.8996C84.5 76.9996 84.4 77.2996 84.4 77.5996C84.4 77.8996 84.5 78.0996 84.8 78.2996C85 78.4996 85.5 78.5996 86.1 78.7996C86.9 78.9996 87.5 79.1996 87.9 79.3996C88.3 79.6996 88.7 79.9996 88.9 80.3996C89.1 80.7996 89.2 81.2996 89.2 81.8996C89.2 82.7996 88.9 83.4996 88.4 84.0996C87.9 84.6996 87.2 84.9996 86.3 85.1996V86.1996C86.3 86.2996 86.3 86.3996 86.2 86.4996C86.1 86.5996 86.1 86.5996 86 86.5996H85C84.9 86.7996 84.8 86.6996 84.8 86.5996Z" fill="#FF7313"/>
</g>
<defs>
<filter id="filter0_d_826_7095" x="0" y="0" width="144" height="144" filterUnits="userSpaceOnUse" color-interpolation-filters="sRGB">
<feFlood flood-opacity="0" result="BackgroundImageFix"/>
<feColorMatrix in="SourceAlpha" type="matrix" values="0 0 0 0 0 0 0 0 0 0 0 0 0 0 0 0 0 0 127 0" result="hardAlpha"/>
<feOffset dy="6"/>
<feGaussianBlur stdDeviation="16"/>
<feComposite in2="hardAlpha" operator="out"/>
<feColorMatrix type="matrix" values="0 0 0 0 0 0 0 0 0 0 0 0 0 0 0 0 0 0 0.08 0"/>
<feBlend mode="normal" in2="BackgroundImageFix" result="effect1_dropShadow_826_7095"/>
<feBlend mode="normal" in="SourceGraphic" in2="effect1_dropShadow_826_7095" result="shape"/>
</filter>
<clipPath id="clip0_826_7095">
<rect width="45.5" height="49" fill="white" transform="translate(53 44)"/>
</clipPath>
</defs>
</svg>
