<svg width="144" height="144" viewBox="0 0 144 144" fill="none" xmlns="http://www.w3.org/2000/svg">
<g filter="url(#filter0_d_826_7145)">
<circle cx="72" cy="66" r="40" fill="white"/>
</g>
<g clip-path="url(#clip0_826_7145)">
<path d="M90 46H55V84H90V46Z" fill="white"/>
<path d="M62.5 59.5H81.5" stroke="black" stroke-width="3" stroke-miterlimit="10" stroke-linecap="round"/>
<path d="M62.5 52.5H81.5" stroke="black" stroke-width="3" stroke-miterlimit="10" stroke-linecap="round"/>
<path d="M62.5 66.5H81.5" stroke="black" stroke-width="3" stroke-miterlimit="10" stroke-linecap="round"/>
<path d="M62.5 73.5H81.5" stroke="black" stroke-width="3" stroke-miterlimit="10" stroke-linecap="round"/>
<path d="M56 44C54.3 44 53 45.3 53 47V87.1C53 87.9 53.7 88.6 54.5 88.6C55 88.6 55.4 88.4 55.6 88.1L58.5 84.7L62.7 88.6L67.1 84.6L71.5 88.6L75.9 84.6L80.3 88.6L84.7 84.6L88.5 88.1C88.5 88.1 88.5 88.1 88.6 88.2L88.7 88.3C88.9 88.5 89.2 88.6 89.6 88.6C90.4 88.6 91.1 87.9 91.1 87.1V47C91.1 45.3 89.8 44 88.1 44H56ZM80.3 84.5L75.9 80.5L71.5 84.5L67.1 80.5L62.7 84.5L58.2 80.4L56 83V82V77V48C56 47.4 56.4 47 57 47H87C87.6 47 88 47.4 88 48V77V82V83.6L84.6 80.5L80.3 84.5Z" fill="black"/>
<path d="M59.9999 78.5004C57.0999 78.5004 54.2999 77.4004 52.1999 75.4004C49.9999 73.3004 48.5999 70.5004 48.4999 67.4004C48.3999 64.3004 49.4999 61.4004 51.5999 59.1004C53.7999 56.8004 56.7999 55.4004 59.9999 55.4004C62.8999 55.4004 65.6999 56.5004 67.7999 58.5004C70.0999 60.6004 71.3999 63.4004 71.4999 66.5004C71.5999 69.6004 70.4999 72.5004 68.3999 74.8004C66.2999 77.2004 63.1999 78.5004 59.9999 78.5004Z" fill="white"/>
<path d="M59.9998 57C62.4998 57 64.8998 57.9 66.7998 59.7C70.7998 63.5 71.0998 69.8 67.2998 73.8C65.3998 75.9 62.7998 77 59.9998 77C57.4998 77 55.0998 76.1 53.1998 74.3C49.1998 70.5 48.8998 64.2 52.6998 60.2C54.5998 58.1 57.1998 57 59.9998 57ZM59.9998 54C56.4998 54 52.9998 55.4 50.4998 58.2C45.5998 63.5 45.8998 71.7 51.1998 76.6C53.6998 78.8 56.7998 80 59.9998 80C63.4998 80 66.9998 78.6 69.4998 75.8C74.3998 70.5 74.0998 62.3 68.7998 57.4C66.2998 55.2 63.1998 54 59.9998 54Z" fill="#FF7313"/>
<path d="M68.3999 75.2002L77.1999 83.4002" stroke="#FF7313" stroke-width="3" stroke-miterlimit="10" stroke-linecap="round"/>
<path d="M54.8999 65.5V70.5" stroke="#FF7313" stroke-width="3" stroke-miterlimit="10" stroke-linecap="round"/>
<path d="M59.8999 61.5V70.5" stroke="#FF7313" stroke-width="3" stroke-miterlimit="10" stroke-linecap="round"/>
<path d="M64.8999 67.5V70.5" stroke="#FF7313" stroke-width="3" stroke-miterlimit="10" stroke-linecap="round"/>
</g>
<defs>
<filter id="filter0_d_826_7145" x="0" y="0" width="144" height="144" filterUnits="userSpaceOnUse" color-interpolation-filters="sRGB">
<feFlood flood-opacity="0" result="BackgroundImageFix"/>
<feColorMatrix in="SourceAlpha" type="matrix" values="0 0 0 0 0 0 0 0 0 0 0 0 0 0 0 0 0 0 127 0" result="hardAlpha"/>
<feOffset dy="6"/>
<feGaussianBlur stdDeviation="16"/>
<feComposite in2="hardAlpha" operator="out"/>
<feColorMatrix type="matrix" values="0 0 0 0 0 0 0 0 0 0 0 0 0 0 0 0 0 0 0.08 0"/>
<feBlend mode="normal" in2="BackgroundImageFix" result="effect1_dropShadow_826_7145"/>
<feBlend mode="normal" in="SourceGraphic" in2="effect1_dropShadow_826_7145" result="shape"/>
</filter>
<clipPath id="clip0_826_7145">
<rect width="44" height="44.6" fill="white" transform="translate(47 44)"/>
</clipPath>
</defs>
</svg>
