<svg width="144" height="144" viewBox="0 0 144 144" fill="none" xmlns="http://www.w3.org/2000/svg">
<g filter="url(#filter0_d_826_7133)">
<circle cx="72" cy="66" r="40" fill="white"/>
</g>
<g clip-path="url(#clip0_826_7133)">
<path d="M72.5 88.5C84.6503 88.5 94.5 78.6503 94.5 66.5C94.5 54.3497 84.6503 44.5 72.5 44.5C60.3497 44.5 50.5 54.3497 50.5 66.5C50.5 78.6503 60.3497 88.5 72.5 88.5Z" stroke="black" stroke-width="3" stroke-miterlimit="10"/>
<path d="M66.5 51.5H78.5" stroke="black" stroke-width="3" stroke-miterlimit="10" stroke-linecap="round"/>
<path d="M66.5 81.5H78.5" stroke="black" stroke-width="3" stroke-miterlimit="10" stroke-linecap="round"/>
<path d="M62.5 57.5H82.5" stroke="black" stroke-width="3" stroke-miterlimit="10" stroke-linecap="round"/>
<path d="M85.5 73.5H59.5C58.4 73.5 57.5 72.6 57.5 71.5V66.5C57.5 65.4 58.4 64.5 59.5 64.5H85.5C86.6 64.5 87.5 65.4 87.5 66.5V71.5C87.5 72.6 86.6 73.5 85.5 73.5Z" stroke="#FF7313" stroke-width="3" stroke-miterlimit="10" stroke-linecap="round"/>
</g>
<defs>
<filter id="filter0_d_826_7133" x="0" y="0" width="144" height="144" filterUnits="userSpaceOnUse" color-interpolation-filters="sRGB">
<feFlood flood-opacity="0" result="BackgroundImageFix"/>
<feColorMatrix in="SourceAlpha" type="matrix" values="0 0 0 0 0 0 0 0 0 0 0 0 0 0 0 0 0 0 127 0" result="hardAlpha"/>
<feOffset dy="6"/>
<feGaussianBlur stdDeviation="16"/>
<feComposite in2="hardAlpha" operator="out"/>
<feColorMatrix type="matrix" values="0 0 0 0 0 0 0 0 0 0 0 0 0 0 0 0 0 0 0.08 0"/>
<feBlend mode="normal" in2="BackgroundImageFix" result="effect1_dropShadow_826_7133"/>
<feBlend mode="normal" in="SourceGraphic" in2="effect1_dropShadow_826_7133" result="shape"/>
</filter>
<clipPath id="clip0_826_7133">
<rect width="47" height="47" fill="white" transform="translate(49 43)"/>
</clipPath>
</defs>
</svg>
