<svg width="160" height="160" viewBox="0 0 160 160" fill="none" xmlns="http://www.w3.org/2000/svg">
<g filter="url(#filter0_d_905_12785)">
<circle cx="80" cy="74" r="48" fill="white"/>
</g>
<path d="M98 53C98.2652 53 98.5196 53.1054 98.7071 53.2929C98.8946 53.4804 99 53.7348 99 54V94C99 94.2652 98.8946 94.5196 98.7071 94.7071C98.5196 94.8946 98.2652 95 98 95H62C61.7348 95 61.4804 94.8946 61.2929 94.7071C61.1054 94.5196 61 94.2652 61 94V54C61 53.7348 61.1054 53.4804 61.2929 53.2929C61.4804 53.1054 61.7348 53 62 53H98ZM98 50H62C60.9391 50 59.9217 50.4214 59.1716 51.1716C58.4214 51.9217 58 52.9391 58 54V94C58 95.0609 58.4214 96.0783 59.1716 96.8284C59.9217 97.5786 60.9391 98 62 98H98C99.0609 98 100.078 97.5786 100.828 96.8284C101.579 96.0783 102 95.0609 102 94V54C102 52.9391 101.579 51.9217 100.828 51.1716C100.078 50.4214 99.0609 50 98 50Z" fill="black"/>
<path d="M80.5 62C80.8956 62 81.2822 62.1173 81.6111 62.3371C81.94 62.5568 82.1964 62.8692 82.3478 63.2346C82.4991 63.6001 82.5387 64.0022 82.4616 64.3902C82.3844 64.7781 82.1939 65.1345 81.9142 65.4142C81.6345 65.6939 81.2781 65.8844 80.8902 65.9616C80.5022 66.0387 80.1001 65.9991 79.7346 65.8478C79.3692 65.6964 79.0568 65.44 78.8371 65.1111C78.6173 64.7822 78.5 64.3956 78.5 64C78.5 63.4696 78.7107 62.9609 79.0858 62.5858C79.4609 62.2107 79.9696 62 80.5 62ZM80.5 60C79.7089 60 78.9355 60.2346 78.2777 60.6741C77.6199 61.1136 77.1072 61.7384 76.8045 62.4693C76.5017 63.2002 76.4225 64.0044 76.5769 64.7804C76.7312 65.5563 77.1122 66.269 77.6716 66.8284C78.231 67.3878 78.9437 67.7688 79.7196 67.9231C80.4956 68.0775 81.2998 67.9983 82.0307 67.6955C82.7616 67.3928 83.3864 66.8801 83.8259 66.2223C84.2654 65.5645 84.5 64.7911 84.5 64C84.5 62.9391 84.0786 61.9217 83.3284 61.1716C82.5783 60.4214 81.5609 60 80.5 60Z" fill="#FF7313"/>
<path d="M78 77H83" stroke="black" stroke-width="2" stroke-miterlimit="10" stroke-linecap="round"/>
<path d="M71.5 83.14V58.5C71.5 57.9696 71.7107 57.4609 72.0858 57.0858C72.4609 56.7107 72.9696 56.5 73.5 56.5H87.5C88.0304 56.5 88.5391 56.7107 88.9142 57.0858C89.2893 57.4609 89.5 57.9696 89.5 58.5V83.09C89.4972 83.3611 89.4429 83.6292 89.34 83.88L87 89.29C86.8454 89.6496 86.5886 89.956 86.2615 90.1711C85.9345 90.3861 85.5515 90.5005 85.16 90.5H75.51C75.1031 90.4993 74.706 90.3745 74.3719 90.1422C74.0378 89.9099 73.7824 89.5812 73.64 89.2L71.64 83.84C71.5483 83.618 71.5008 83.3802 71.5 83.14V83.14Z" stroke="black" stroke-width="3" stroke-miterlimit="10"/>
<path d="M89.5 83.5H71.5" stroke="black" stroke-width="3" stroke-miterlimit="10"/>
<defs>
<filter id="filter0_d_905_12785" x="0" y="0" width="160" height="160" filterUnits="userSpaceOnUse" color-interpolation-filters="sRGB">
<feFlood flood-opacity="0" result="BackgroundImageFix"/>
<feColorMatrix in="SourceAlpha" type="matrix" values="0 0 0 0 0 0 0 0 0 0 0 0 0 0 0 0 0 0 127 0" result="hardAlpha"/>
<feOffset dy="6"/>
<feGaussianBlur stdDeviation="16"/>
<feComposite in2="hardAlpha" operator="out"/>
<feColorMatrix type="matrix" values="0 0 0 0 0 0 0 0 0 0 0 0 0 0 0 0 0 0 0.08 0"/>
<feBlend mode="normal" in2="BackgroundImageFix" result="effect1_dropShadow_905_12785"/>
<feBlend mode="normal" in="SourceGraphic" in2="effect1_dropShadow_905_12785" result="shape"/>
</filter>
</defs>
</svg>
